<mxfile host="app.diagrams.net" modified="2020-12-16T08:49:24.828Z" agent="5.0 (X11; Linux x86_64) AppleWebKit/537.36 (KHTML, like Gecko) Chrome/87.0.4280.88 Safari/537.36" etag="dvZi2GcFzflo86sTal8c" version="13.11.0" type="github">
  <diagram id="Hr9EdEMMl5SKkqf4CS81" name="Page-1">
    <mxGraphModel dx="1364" dy="806" grid="1" gridSize="10" guides="1" tooltips="1" connect="1" arrows="1" fold="1" page="1" pageScale="1" pageWidth="827" pageHeight="1169" math="0" shadow="0">
      <root>
        <mxCell id="0" />
        <mxCell id="1" parent="0" />
        <mxCell id="Ldq6iwnSZ9Qf4cn9WtAT-2" value="Database Entity" style="text;html=1;align=center;verticalAlign=middle;resizable=0;points=[];autosize=1;" vertex="1" parent="1">
          <mxGeometry x="90" y="90" width="100" height="20" as="geometry" />
        </mxCell>
        <mxCell id="Ldq6iwnSZ9Qf4cn9WtAT-3" value="Data Transfer Object&lt;br&gt;" style="text;html=1;align=center;verticalAlign=middle;resizable=0;points=[];autosize=1;" vertex="1" parent="1">
          <mxGeometry x="300" y="90" width="130" height="20" as="geometry" />
        </mxCell>
        <mxCell id="Ldq6iwnSZ9Qf4cn9WtAT-5" value="" style="endArrow=classic;html=1;" edge="1" parent="1" source="Ldq6iwnSZ9Qf4cn9WtAT-2" target="Ldq6iwnSZ9Qf4cn9WtAT-3">
          <mxGeometry width="50" height="50" relative="1" as="geometry">
            <mxPoint x="390" y="430" as="sourcePoint" />
            <mxPoint x="440" y="380" as="targetPoint" />
          </mxGeometry>
        </mxCell>
        <mxCell id="Ldq6iwnSZ9Qf4cn9WtAT-6" value="Mapstruct" style="edgeLabel;html=1;align=center;verticalAlign=middle;resizable=0;points=[];" vertex="1" connectable="0" parent="Ldq6iwnSZ9Qf4cn9WtAT-5">
          <mxGeometry x="0.4" y="2" relative="1" as="geometry">
            <mxPoint x="-27" y="2" as="offset" />
          </mxGeometry>
        </mxCell>
        <mxCell id="Ldq6iwnSZ9Qf4cn9WtAT-7" value="kafka" style="rounded=0;whiteSpace=wrap;html=1;" vertex="1" parent="1">
          <mxGeometry x="500" y="80" width="120" height="60" as="geometry" />
        </mxCell>
        <mxCell id="Ldq6iwnSZ9Qf4cn9WtAT-8" value="" style="curved=1;endArrow=classic;html=1;dashed=1;" edge="1" parent="1" source="Ldq6iwnSZ9Qf4cn9WtAT-3" target="Ldq6iwnSZ9Qf4cn9WtAT-7">
          <mxGeometry width="50" height="50" relative="1" as="geometry">
            <mxPoint x="430" y="125" as="sourcePoint" />
            <mxPoint x="480" y="75" as="targetPoint" />
            <Array as="points">
              <mxPoint x="480" y="125" />
              <mxPoint x="430" y="75" />
            </Array>
          </mxGeometry>
        </mxCell>
        <mxCell id="Ldq6iwnSZ9Qf4cn9WtAT-9" value="Database Entity" style="text;html=1;align=center;verticalAlign=middle;resizable=0;points=[];autosize=1;" vertex="1" parent="1">
          <mxGeometry x="110" y="210" width="100" height="20" as="geometry" />
        </mxCell>
        <mxCell id="Ldq6iwnSZ9Qf4cn9WtAT-10" value="Data Transfer Object&lt;br&gt;" style="text;html=1;align=center;verticalAlign=middle;resizable=0;points=[];autosize=1;" vertex="1" parent="1">
          <mxGeometry x="320" y="210" width="130" height="20" as="geometry" />
        </mxCell>
        <mxCell id="Ldq6iwnSZ9Qf4cn9WtAT-11" value="" style="endArrow=classic;html=1;" edge="1" parent="1" source="Ldq6iwnSZ9Qf4cn9WtAT-10" target="Ldq6iwnSZ9Qf4cn9WtAT-9">
          <mxGeometry width="50" height="50" relative="1" as="geometry">
            <mxPoint x="410" y="550" as="sourcePoint" />
            <mxPoint x="460" y="500" as="targetPoint" />
          </mxGeometry>
        </mxCell>
        <mxCell id="Ldq6iwnSZ9Qf4cn9WtAT-12" value="Mapstruct" style="edgeLabel;html=1;align=center;verticalAlign=middle;resizable=0;points=[];" vertex="1" connectable="0" parent="Ldq6iwnSZ9Qf4cn9WtAT-11">
          <mxGeometry x="0.4" y="2" relative="1" as="geometry">
            <mxPoint x="27" y="-2" as="offset" />
          </mxGeometry>
        </mxCell>
        <mxCell id="Ldq6iwnSZ9Qf4cn9WtAT-13" value="" style="curved=1;endArrow=classic;html=1;dashed=1;exitX=0.5;exitY=1;exitDx=0;exitDy=0;" edge="1" parent="1" source="Ldq6iwnSZ9Qf4cn9WtAT-7" target="Ldq6iwnSZ9Qf4cn9WtAT-10">
          <mxGeometry width="50" height="50" relative="1" as="geometry">
            <mxPoint x="620" y="188.8461538461538" as="sourcePoint" />
            <mxPoint x="531" y="205" as="targetPoint" />
            <Array as="points">
              <mxPoint x="550" y="170" />
              <mxPoint x="600" y="220" />
            </Array>
          </mxGeometry>
        </mxCell>
      </root>
    </mxGraphModel>
  </diagram>
</mxfile>
